<svg xmlns="http://www.w3.org/2000/svg" viewBox="0 0 12 11" width="12" height="11">
	<defs>
		<clipPath clipPathUnits="userSpaceOnUse" id="cp1">
			<path d="M-602 -23L81 -23L81 1411L-602 1411Z" />
		</clipPath>
	</defs>
	<style>
		tspan { white-space:pre }
		.shp0 { fill: #ffffff } 
	</style>
	<g id="06-Alizi-Project-Block – 1366" clip-path="url(#cp1)">
		<g id="Group 4460">
			<path id="Icon material-favorite-border" fill-rule="evenodd" class="shp0" d="M11.06 3.54C11.06 5.63 9.18 7.33 6.33 9.92L5.53 10.65L4.73 9.92C1.88 7.33 0 5.63 0 3.54C0 1.84 1.34 0.5 3.04 0.5C4 0.5 4.93 0.95 5.53 1.66C6.13 0.95 7.06 0.5 8.02 0.5C9.72 0.5 11.06 1.84 11.06 3.54ZM9.95 3.54C9.95 2.44 9.12 1.61 8.02 1.61C7.17 1.61 6.34 2.15 6.05 2.91L5.02 2.91C4.72 2.15 3.89 1.61 3.04 1.61C1.94 1.61 1.11 2.44 1.11 3.54C1.11 5.14 2.84 6.72 5.47 9.1L5.53 9.15L5.59 9.1C8.22 6.72 9.95 5.14 9.95 3.54Z" />
		</g>
	</g>
</svg>