<svg xmlns="http://www.w3.org/2000/svg" viewBox="0 0 12 12" width="12" height="12">
	<defs>
		<clipPath clipPathUnits="userSpaceOnUse" id="cp1">
			<path d="M-490 -484L470 -484L470 1347L-490 1347Z" />
		</clipPath>
	</defs>
	<style>
		tspan { white-space:pre }
		.shp0 { fill: #ffffff } 
	</style>
	<g id="06-Alizi-Project-Block" clip-path="url(#cp1)">
		<g id="Group 4488">
			<g id="Group 4476">
				<g id="Group 4477">
					<path id="Rectangle 4890" class="shp0" d="M3.48 3.22L3.48 11.55L0.4 11.55L0.4 3.22L3.48 3.22Z" />
					<path id="Rectangle 4893" class="shp0" d="M11.78 3.22L11.78 11.55L8.7 11.55L8.7 3.22L11.78 3.22Z" />
					<path id="Rectangle 4894" class="shp0" d="M6.1 3.22L6.1 3.22C5.25 3.22 4.56 2.53 4.56 1.68L4.56 1.68C4.56 0.83 5.25 0.14 6.1 0.14L6.1 0.14C6.96 0.14 7.64 0.83 7.64 1.68L7.64 1.68C7.64 2.53 6.96 3.22 6.1 3.22Z" />
					<path id="Rectangle 4895" class="shp0" d="M10.97 11.52L1.22 11.52L1.22 8.44L10.97 8.44L10.97 11.52Z" />
				</g>
			</g>
		</g>
	</g>
</svg>